<svg width="980" height="220" viewBox="0 0 980 220" fill="none" xmlns="http://www.w3.org/2000/svg">
  <title>ShopList wordmark</title>
  <defs>
    <linearGradient id="ice" x1="188" y1="52" x2="742" y2="162" gradientUnits="userSpaceOnUse">
      <stop stop-color="#F7FBFF"/>
      <stop offset="0.42" stop-color="#DDF0FF"/>
      <stop offset="1" stop-color="#9BD4FF"/>
    </linearGradient>
    <linearGradient id="accent" x1="540" y1="54" x2="770" y2="166" gradientUnits="userSpaceOnUse">
      <stop stop-color="#59B7FF"/>
      <stop offset="1" stop-color="#1F78E0"/>
    </linearGradient>
    <linearGradient id="cart" x1="0" y1="0" x2="1" y2="1">
      <stop stop-color="#FFD36A"/>
      <stop offset="1" stop-color="#FF9E1A"/>
    </linearGradient>
    <filter id="glow" x="0" y="0" width="980" height="220" filterUnits="userSpaceOnUse" color-interpolation-filters="sRGB">
      <feGaussianBlur stdDeviation="10" result="blur"/>
      <feColorMatrix in="blur" type="matrix" values="0 0 0 0 0.22 0 0 0 0 0.60 0 0 0 0 1 0 0 0 0.18 0"/>
      <feBlend in="SourceGraphic" in2="blur"/>
    </filter>
    <filter id="shadow" x="0" y="0" width="980" height="220" filterUnits="userSpaceOnUse" color-interpolation-filters="sRGB">
      <feOffset dy="8"/>
      <feGaussianBlur stdDeviation="8"/>
      <feColorMatrix type="matrix" values="0 0 0 0 0.04 0 0 0 0 0.10 0 0 0 0 0.20 0 0 0 0.24 0"/>
      <feBlend in2="SourceGraphic"/>
    </filter>
  </defs>

  <g filter="url(#glow)">
    <g transform="translate(74 2)">
      <path d="M0 60L58 22C61.2 19.4 65.8 19.4 69 22L126 60C130 63.4 127.2 69.5 121.4 69.5H110V136C110 141 106 145 101 145H25C20 145 16 141 16 136V69.5H4.6C-1.2 69.5 -4 63.4 0 60Z" fill="#CFEAFF" fill-opacity="0.12" stroke="#66BCF9" stroke-width="8" stroke-linejoin="round"/>
      <path d="M86 20C96 24 104 32 108 42" stroke="#7DCAFF" stroke-width="6" stroke-linecap="round"/>
      <path d="M94 12C108 18 118 29 124 43" stroke="#7DCAFF" stroke-width="6" stroke-linecap="round" opacity="0.85"/>
      <path d="M103 5C119 12 131 26 138 43" stroke="#7DCAFF" stroke-width="6" stroke-linecap="round" opacity="0.7"/>
      <g transform="translate(33 77) rotate(-10 30 26)">
        <rect x="0" y="0" width="60" height="52" rx="14" fill="#F7FBFF" fill-opacity="0.12" stroke="#8FD2FF" stroke-width="5"/>
        <path d="M14 28L25 39L46 17" stroke="#34C759" stroke-width="8" stroke-linecap="round" stroke-linejoin="round"/>
      </g>
    </g>
    <text x="246" y="128" fill="url(#ice)" font-family="Segoe UI, Arial, sans-serif" font-size="98" font-style="italic" font-weight="900" letter-spacing="-0.065em">Shop</text>
    <text x="470" y="128" fill="url(#accent)" font-family="Segoe UI, Arial, sans-serif" font-size="98" font-style="italic" font-weight="900" letter-spacing="-0.055em">List</text>
  </g>
</svg>
