<svg width="160" height="120" viewBox="0 0 160 120" fill="none" xmlns="http://www.w3.org/2000/svg">
  <defs>
    <linearGradient id="cart" x1="0" y1="0" x2="1" y2="1">
      <stop stop-color="#FFD36A"/>
      <stop offset="1" stop-color="#FF9E1A"/>
    </linearGradient>
  </defs>
  <g transform="translate(18 18) scale(1.42)">
    <path d="M6 2H22L28 21H54" stroke="#B5C2D8" stroke-width="4" stroke-linecap="round" stroke-linejoin="round"/>
    <path d="M18 8H52L47 20H22" stroke="#7F8CA4" stroke-width="3.5" stroke-linecap="round" stroke-linejoin="round"/>
    <circle cx="25" cy="29" r="4.2" fill="#5A667E"/>
    <circle cx="47" cy="29" r="4.2" fill="#5A667E"/>
    <path d="M29 5C31.2 2 35.9 0.3 39.8 3.2C43 5.6 41.7 10.9 37.6 12.4C33.7 13.8 29.5 9.9 29 5Z" fill="url(#cart)"/>
    <path d="M40 6C42.5 3.4 47.2 3.7 49.2 6.9C51.5 10.6 48.3 15.1 43.9 14.7C39.9 14.2 37.9 9.4 40 6Z" fill="#F55B3D"/>
    <path d="M53 6C56.9 8.9 59.6 13.2 60.7 18.1" stroke="#35BE67" stroke-width="3" stroke-linecap="round"/>
  </g>
</svg>
