<svg xmlns="http://www.w3.org/2000/svg" viewBox="0 0 108 108" width="108" height="108">
  <defs>
    <linearGradient id="bg" x1="18" y1="12" x2="92" y2="98" gradientUnits="userSpaceOnUse">
      <stop offset="0" stop-color="#8FD2FF"/>
      <stop offset="0.55" stop-color="#3E97EE"/>
      <stop offset="1" stop-color="#145FC8"/>
    </linearGradient>
  </defs>
  <rect width="108" height="108" fill="url(#bg)"/>
  <g transform="translate(54 54) scale(0.82) translate(-54 -54)">
    <path d="M21,50L46,28.8C48.1,27 51.2,27 53.3,28.8L78,50" fill="none" stroke="#FFFFFF" stroke-width="4.8" stroke-linecap="round" stroke-linejoin="round"/>
    <path d="M27,48.8V73C27,76.3 29.7,79 33,79H66C69.3,79 72,76.3 72,73V48.8" fill="none" stroke="#F3FAFF" stroke-width="4.8" stroke-linecap="round" stroke-linejoin="round"/>
    <path d="M68,27.4 A18,18 0 0,1 76.4,38.3" fill="none" stroke="#DDF2FF" stroke-width="4" stroke-linecap="round"/>
    <path d="M73.1,18.1 A28,28 0 0,1 86,35.8" fill="none" stroke="#DDF2FF" stroke-width="4" stroke-linecap="round" stroke-opacity="0.9"/>
    <path d="M78.1,9.9 A38,38 0 0,1 95.7,33.2" fill="none" stroke="#DDF2FF" stroke-width="4" stroke-linecap="round" stroke-opacity="0.74"/>
    <g transform="translate(6 -2) translate(48 61) rotate(-10) scale(0.62) translate(-48 -61)">
      <path d="M30,46h24c3.3,0 6,2.7 6,6v24c0,3.3 -2.7,6 -6,6H30c-3.3,0 -6,-2.7 -6,-6V52c0,-3.3 2.7,-6 6,-6z" fill="#2A11263E" stroke="#8FD2FF" stroke-width="3.6"/>
      <path d="M29,61L38,70L54,51" fill="none" stroke="#34C759" stroke-width="5.8" stroke-linecap="round" stroke-linejoin="round"/>
    </g>
  </g>
</svg>
